<svg version="1.1" id="Layer_1" xmlns="http://www.w3.org/2000/svg" x="0" y="0" viewBox="0 0 159.8 200.6" xml:space="preserve"><style>.st0{fill-rule:evenodd;clip-rule:evenodd;fill:#ff0013}</style><path id="Fill-4" class="st0" d="M80 109.8c7.5-9.4 14.9-18.7 22.4-28.1-1.9 12.2 2.7 20.6 14 25.3-2.8 3.5-5.5 6.9-8.3 10.4-5.7 7.2-11.6 14.3-17.1 21.6-5.8 7.8-16.9 7.2-22.5-.5-7.2-9.9-15.2-19.3-22.9-28.9-1.6-2.1-3.3-4.1-5.2-6.1v72.6c0 8.3-6.3 14.1-14.5 13.6-6.5-.4-12.1-6.2-12.1-12.7V64.3c0-5.3 3.7-10.2 8.9-12 5.3-1.9 11.2-.2 14.7 4.1 7.2 8.9 14.3 17.9 21.4 26.9 6.7 8.4 13.4 16.9 20.2 25.3.2.4.6.7 1 1.2"/><path id="Fill-6" class="st0" d="M112.6 68.7c3.5-4.3 6.7-8.4 10-12.5 1.8-2.2 4.1-3.6 6.9-4.3 8.3-2.2 16.6 4.2 16.6 12.8v112c0 7.2-5.9 13-13.2 13.1-7.2.1-13.2-5.6-13.4-12.8-.1-4.5 0-9.1 0-13.6v-55.9c8.3.7 15.2-2 20-8.9 3.5-4.9 4.4-10.4 3.1-16.2-2.4-11.3-15.9-20.4-30-13.7"/><path d="M55.5 45.6h-.6c-4.4-.1-8.8-2.1-11.9-5.5-3.2-3.4-4.9-7.8-4.7-12.2.3-9.7 8.2-17.4 17.7-17.2 4.8.1 9.2 2.1 12.4 5.5 3.2 3.4 4.9 7.8 4.7 12.6-.3 9.5-8 16.8-17.6 16.8zM43.2 28.1c-.1 3.1 1.1 6.2 3.4 8.6 2.3 2.4 5.3 3.8 8.4 3.9 7.1.2 12.8-5 13.1-12 .1-3.4-1.1-6.6-3.3-9-2.3-2.4-5.5-3.8-8.9-3.9-6.9-.2-12.4 5.3-12.7 12.4z" fill="#ff0013"/><path id="Fill-10" class="st0" d="M135.7 87.1c0 7.4-5.9 13.3-13.3 13.3-7.3 0-13.2-5.9-13.2-13.3s5.9-13.3 13.3-13.3 13.2 5.9 13.2 13.3"/></svg>